<svg width="16" height="16" viewBox="0 0 16 16" fill="none" xmlns="http://www.w3.org/2000/svg">
<path d="M8.45594e-05 1.33337C8.45594e-05 1.68699 0.140561 2.02613 0.390609 2.27618C0.640658 2.52623 0.979796 2.6667 1.33342 2.6667H11.4534L0.386751 13.72C0.13568 13.9711 -0.0053711 14.3116 -0.00537109 14.6667C-0.00537109 15.0218 0.13568 15.3623 0.386751 15.6134C0.637823 15.8644 0.978349 16.0055 1.33342 16.0055C1.68849 16.0055 2.02901 15.8644 2.28008 15.6134L13.3334 4.5467V14.6667C13.3334 15.0203 13.4739 15.3595 13.7239 15.6095C13.974 15.8596 14.3131 16 14.6668 16C15.0204 16 15.3595 15.8596 15.6096 15.6095C15.8596 15.3595 16.0001 15.0203 16.0001 14.6667V1.33337C15.998 1.15913 15.9617 0.987002 15.8934 0.826706C15.7581 0.500906 15.4992 0.242004 15.1734 0.106705C15.0131 0.0383825 14.841 0.00214386 14.6668 3.8147e-05H1.33342C0.979796 3.8147e-05 0.640658 0.140512 0.390609 0.390561C0.140561 0.64061 8.45594e-05 0.979749 8.45594e-05 1.33337Z" fill="#000"/>
</svg>
