<svg width="88" height="50" viewBox="0 0 88 50" fill="none" xmlns="http://www.w3.org/2000/svg">
<path d="M30.8674 6.29337H28.2807H24.6529C13.8958 6.29337 5.93054 13.8486 5.93054 24.8265C5.93054 34.6214 13.1861 44.0379 23.4542 44.0221C23.7066 44.0221 25.0315 44.0221 25.0315 44.0221V28.1861H15.4889V22.5237H30.9148V49.6845H24.6687C11.0409 49.6845 0.110352 38.5173 0.110352 24.858C0.110352 11.1987 11.0725 0 24.6529 0H28.2807H30.8674V6.29337ZM59.7003 6.11987C53.5488 6.11987 55.2208 11.8139 57.0346 15C61.2618 22.429 68.6592 31.1987 64.3848 40.3155C61.0252 47.4606 55.757 49.1325 49.4637 49.8107V44.1167C53.5173 43.6751 57.0346 42.5867 59.2271 37.9022C63.0914 29.7003 50.6939 19.653 49.6372 11.9401C48.4384 3.21767 56.0883 0.441641 59.7003 0.441641H62.5551V6.26183L59.7003 6.11987ZM73.7381 6.23028C67.5867 6.23028 69.2586 11.9243 71.0725 15.1104C75.2996 22.5552 82.6971 31.3091 78.4227 40.4259C75.0788 47.5237 69.858 49.2271 63.6119 49.9054V44.2114C67.6182 43.7697 71.0725 42.6498 73.2649 37.9968C77.1293 29.795 64.7318 19.7476 63.675 12.0347C62.4763 3.3123 70.1261 0.536277 73.7381 0.536277L76.593 0.410096V6.23028H73.7381ZM81.3879 0.283912H87.082V49.7319H81.3879V0.283912ZM33.1072 0.410096H33.0914H47.4921V6.13565H39.022V9.55836H43.5804V15.2524H38.7854V43.9748H47.4921V49.6845H33.0914L33.1072 0.410096Z" fill="white"/>
</svg>
